<?xml version="1.0" encoding="UTF-8"?>
<svg width="1200pt" height="1200pt" version="1.1" viewBox="199 106 800 988" xmlns="http://www.w3.org/2000/svg" fill="#d4920b">
 <path d="m692.06 466.22c5.7656-36.75-3.9375-73.031-26.672-99.609-21.516-25.172-52.5-39.047-87.281-39.047-34.922 0-66.047 14.016-87.656 39.516-22.688 26.766-32.203 63.094-26.156 99.656 6.2812 37.875 26.484 57.047 44.344 73.922 14.578 13.828 28.359 26.859 28.359 46.969 0 3.1875-2.5781 5.7656-5.7656 5.7656s-5.7656-2.5781-5.7656-5.7656c0-15.141-10.922-25.5-24.797-38.625-18.234-17.25-40.875-38.719-47.812-80.438-6.6094-39.938 3.8438-79.641 28.734-108.98 23.812-28.078 58.078-43.547 96.422-43.547 38.156 0 72.281 15.281 96.047 43.078 24.938 29.156 35.578 68.859 29.297 108.89-6.6562 42.234-29.25 63.047-47.391 79.734-14.156 13.031-25.359 23.297-25.359 39.891 0 3.1875-2.5781 5.7656-5.7656 5.7656s-5.7656-2.5781-5.7656-5.7656c0-21.609 14.109-34.594 29.062-48.328 17.719-16.266 37.781-34.734 43.828-73.031zm-98.25 7.5v113.91c0 3.1875-2.5781 5.7656-5.7656 5.7656s-5.7656-2.5781-5.7656-5.7656v-112.73c-1.7344 0.09375-3.3281 0.14062-5.1094 0.09375 0.375 15.891 0 35.156-0.5625 57.797-0.42188 17.766-0.84375 36.094-0.84375 54.844 0 3.1875-2.5781 5.7656-5.7656 5.7656s-5.7656-2.5781-5.7656-5.7656c0-18.891 0.42188-37.312 0.84375-55.125 0.46875-20.156 0.98438-40.594 0.51562-57.984-5.1094-0.42188-8.9531-0.98438-10.5-1.3125-17.25-3.75-25.125-17.578-25.266-29.625-0.14062-12.844 7.7344-23.109 20.016-26.016 5.3906-1.3125 10.359-0.28125 14.344 2.9531 7.8281 6.3281 11.25 20.578 12.469 43.031 1.875 0 3.75-0.046875 5.625-0.14062 0.65625-18.094 4.2656-27.375 11.484-29.859 5.0625-1.7344 10.734 0.70312 15.234 6.4688 8.8125 11.391 7.3125 19.078 4.5 23.578-3.5625 5.6719-11.203 8.7188-19.781 10.219zm-28.594-10.734c-0.98438-17.062-3.3281-29.672-8.1562-33.609-0.60938-0.46875-1.3594-0.9375-2.6719-0.9375-0.51562 0-1.0781 0.046875-1.7812 0.23438-8.3438 2.0156-11.25 8.9062-11.203 14.719 0.09375 6.9375 4.3594 15.938 16.172 18.516 1.9688 0.42188 4.5938 0.79688 7.5938 1.0781zm34.781-15.984c-1.0312-1.3125-1.9688-2.0625-2.5312-2.3906-0.79688 1.0781-2.9062 5.0156-3.5156 17.391 4.8281-0.98438 8.5312-2.4844 9.8906-4.6406 1.6875-2.6719-2.1094-8.1562-3.8438-10.359zm141.32-147.47c-80.859-58.547-190.13-69.984-278.26-29.109-87.938 40.734-141.14 124.92-149.81 237.05-4.875 33.469-30.797 69.516-53.672 101.3-15.984 22.172-31.031 43.125-37.219 60.891-2.7656 7.9688-2.3906 15.141 1.1719 21.281 8.2969 14.438 31.922 19.031 59.25 24.328 1.6875 0.32812 3.4219 0.65625 5.1562 0.98438-1.125 2.1562-2.1562 4.2188-3.1875 6.1406-12.047 23.109-17.156 36.188 7.4062 54.75-6.8906 6.375-14.344 15.562-14.016 22.969 0.375 9.2344 5.0625 13.5 8.7656 16.969 5.5312 5.1094 13.078 12.094 12.281 49.875-0.75 34.781 7.5938 58.312 24.797 69.891 17.438 11.719 43.078 10.406 76.172-3.9844 38.062-16.5 64.969-19.266 82.266-8.3906 26.531 16.641 33.797 66.703 36.891 142.08 0.1875 4.125 3.5625 7.3594 7.6875 7.3594h0.32813c4.2188-0.1875 7.5469-3.75 7.3594-7.9688-3.375-82.453-11.672-134.16-44.062-154.45-22.219-13.922-52.875-11.625-96.516 7.3125-27.984 12.141-48.703 13.922-61.5 5.2969-12.562-8.4375-18.656-27.562-18-56.812 0.89062-41.25-7.6406-52.641-17.203-61.5-3-2.8125-3.7031-3.5156-3.8438-6 1.0781-3.8438 10.969-14.156 15.047-16.125 2.4844-1.2188 4.125-3.7031 4.2656-6.4688 0.14063-2.7656-1.2188-5.3906-3.5156-6.8906-12.469-7.9688-18.422-13.734-19.172-18.656s3-12.188 8.25-22.219c2.3438-4.5 5.0156-9.6094 7.7812-15.516 0.98438-2.1094 0.98438-4.5938-0.09375-6.7031-1.0312-2.1094-3-3.6094-5.2969-4.0781-5.0625-1.0781-10.125-2.0625-15.047-3-21.656-4.2188-44.062-8.5781-48.844-16.922-0.79687-1.3594-1.6406-3.75 0.046876-8.625 5.4375-15.656 19.875-35.719 35.156-56.953 23.953-33.328 51.141-71.062 56.438-108.33 0-0.1875 0.046874-0.32812 0.046874-0.51562 8.1562-106.45 58.219-186.24 140.95-224.58 83.203-38.531 186.37-27.703 262.82 27.656 81.047 58.688 118.31 154.45 104.86 269.72-5.1094 43.922-20.812 69.422-38.953 98.953-12.375 20.156-25.172 41.016-36 69.75-4.7344 12.656-8.3906 24.938-11.906 36.844-12.844 43.312-22.125 74.578-70.688 75.984-22.781 0.60937-42.094-7.0312-57.422-22.781-28.078-28.875-41.25-84.281-37.078-155.95 0-0.14062-0.046875-0.28125-0.046875-0.42187h1.0312c4.9688 0 9.4219-1.7344 12.656-4.5 2.2969-1.9688 3.9375-4.5 4.6406-7.3125h-51.891c0.70312 2.8125 2.3438 5.3438 4.6406 7.3125 3.2344 2.8125 7.6875 4.5 12.656 4.5h0.9375c-4.3594 76.922 9.9375 134.68 41.438 167.11 18.188 18.703 42 28.219 68.906 27.422 59.672-1.6875 71.953-43.125 84.984-86.953 3.4688-11.625 7.0312-23.672 11.578-35.812 10.266-27.375 22.688-47.578 34.688-67.125 18.281-29.766 35.578-57.938 41.109-105.19 7.3594-62.953 0.23438-120.47-21.188-170.9-19.219-45.281-50.297-84.375-89.906-113.02zm146.21-41.156c5.625-5.5781 8.8125-12.516 9.375-19.219 0.60938-6.7969-1.4531-13.359-6.2344-18.094s-11.438-6.75-18.281-6.1875c-6.7969 0.5625-13.828 3.7031-19.453 9.2812-11.016 10.922-38.391 70.781-38.484 70.969-0.09375 0.23438-0.14062 0.51562 0 0.79688 0.23438 0.46875 0.79688 0.70312 1.2656 0.46875 0.1875-0.09375 60.75-27.141 71.812-38.016zm83.391 170.72c-5.25-4.3594-12.422-7.0312-20.391-7.0312-15.609 0-77.812 23.203-78 23.297-0.23438 0.09375-0.46875 0.28125-0.5625 0.5625-0.1875 0.51562 0.046875 1.0312 0.5625 1.2188 0.1875 0.046874 62.391 23.297 78 23.297 7.9688 0 15.141-2.6719 20.391-7.0312 5.2969-4.3594 8.5312-10.453 8.5312-17.156 0-6.7031-3.2812-12.75-8.5312-17.156zm-313.97-196.87c0.51562 0.1875 1.0781-0.046875 1.2656-0.5625 0.046875-0.1875 23.578-61.641 23.578-77.062 0-7.875-2.7188-15-7.125-20.156-4.4531-5.2031-10.547-8.4375-17.344-8.4375s-12.938 3.2344-17.344 8.4375c-4.4062 5.1562-7.125 12.281-7.125 20.156 0 15.422 23.484 76.875 23.578 77.062 0.09375 0.23438 0.28125 0.46875 0.5625 0.5625zm-38.203 428.21c2.8594-2.8125 4.8281-6.4688 5.4844-10.547h-47.812c-1.6875 0-3.0938-1.3594-3.0938-3.0469s1.3594-3.0469 3.0938-3.0469h48.047v-13.031h-48.047c-1.6875 0-3.0938-1.3594-3.0938-3.0469s1.3594-3.0469 3.0938-3.0469h48.047v-10.828h-48.047c-1.6875 0-3.0938-1.3594-3.0938-3.0469s1.3594-3.0469 3.0938-3.0469h48.047v-11.531h-92.109v11.531h14.109c1.6875 0 3.0938 1.3594 3.0938 3.0469s-1.3594 3.0469-3.0938 3.0469h-14.109v10.828h14.109c1.6875 0 3.0938 1.3594 3.0938 3.0469s-1.3594 3.0469-3.0938 3.0469h-14.109v13.031h14.109c1.6875 0 3.0938 1.3594 3.0938 3.0469s-1.3594 3.0469-3.0938 3.0469h-14.016c0.375 4.2656 2.2969 8.1094 5.2031 11.016 3.2344 3.2344 7.7344 5.2031 12.703 5.2031h54.656c5.3438 0 10.219-2.1562 13.781-5.6719z"/>
</svg>
