<?xml version="1.0" encoding="UTF-8"?>
<svg width="1200pt" height="1200pt" version="1.1" viewBox="0 0 1200 1200" xmlns="http://www.w3.org/2000/svg" fill="#d4920b">
 <path d="m139.59 1105.3c5.4062 7.2383 13.871 11.301 22.617 11.301 2.8477 0 5.7109-0.41016 8.4922-1.3047 11.473-3.625 19.359-14.082 19.715-26.098 1.5703-53.023 9.2188-147.41 23.062-175.09 14.809-29.723 38.387-54.582 66.645-72.039 13.066 6.6719 26.914 12.16 41.566 15.957 2.3867 0.59375 4.7617 0.91016 7.1211 0.91016 12.539 0 23.988-8.4414 27.297-21.152 3.9414-15.086-5.1289-30.5-20.215-34.43-65.379-16.957-111.01-76.062-111.01-143.71 0-81.836 66.594-148.43 148.47-148.43 81.863 0 148.45 66.594 148.45 148.43 0 58.668-34.602 111.94-88.152 135.72-14.281 6.3438-20.715 23.012-14.359 37.277 6.3164 14.215 23.051 20.676 37.254 14.336 3.8125-1.7148 7.2266-3.9297 10.918-5.8281 28.945 17.461 53.117 42.699 68.215 73.016 13.238 26.492 26.863 153.43 32.32 235.08 0.98828 14.914 13.398 26.348 28.129 26.348 0.63281 0 1.2539-0.027343 1.8984-0.078125 15.586-1.0273 27.309-14.48 26.32-30.027-2.3359-34.746-15.074-210.29-38.148-256.56-16.352-32.742-40.535-61.359-69.719-83.289 38.547-37.898 61.805-89.973 61.805-145.98 0-112.96-91.91-204.91-204.94-204.91-113.01 0-204.95 91.953-204.95 204.91 0 57.074 23.629 109.62 62.531 147.32-28.457 21.758-52.023 49.848-68.031 81.957-12.844 25.66-20.125 76.852-24.16 121l-58.352-77.945c-9.375-12.527-27.086-15.031-39.547-5.7227-12.434 9.3633-14.969 27.059-5.6836 39.547z"/>
 <path d="m396.79 741.22c19.109 0 40.258-5.3672 61.133-20.336 12.66-9.1133 15.547-26.742 6.4492-39.414-9.0977-12.688-26.742-15.559-39.43-6.4492-28.656 20.559-54.289 2.7969-57.324 0.52734-12.277-9.4297-29.867-7.2266-39.402 4.9453-9.6133 12.266-7.5039 30.012 4.7461 39.641 12.344 9.7031 35.949 21.086 63.828 21.086z"/>
 <path d="m378.64 621.44c0-17.289-14.031-31.344-31.332-31.344-17.262 0-31.32 14.059-31.32 31.344 0 17.25 14.059 31.32 31.32 31.32 17.289 0 31.332-14.07 31.332-31.32z"/>
 <path d="m475.9 621.44c0-17.289-14.07-31.344-31.332-31.344-17.312 0-31.371 14.059-31.371 31.344 0 17.25 14.059 31.32 31.371 31.32 17.262 0 31.332-14.07 31.332-31.32z"/>
 <path d="m234.82 1006.1v164.57c0 15.602 12.645 28.234 28.246 28.234s28.234-12.633 28.234-28.234v-164.57c0-15.574-12.633-28.219-28.234-28.219-15.598 0-28.246 12.645-28.246 28.219z"/>
 <path d="m484.45 1198.9c15.613 0 28.246-12.633 28.246-28.234v-209.73c0-15.613-12.633-28.234-28.246-28.234-15.613 0-28.246 12.621-28.246 28.234v209.73c0.011719 15.602 12.645 28.234 28.246 28.234z"/>
 <path d="m1109.6 1149.4c1.082 14.863 13.449 26.188 28.141 26.188 0.6875 0 1.3711-0.027344 2.082-0.078125 15.559-1.1328 27.242-14.676 26.109-30.223-2.5469-34.68-16.34-210.17-39.348-256.36-16.379-32.742-40.551-61.359-69.746-83.289 38.57-37.898 61.82-89.973 61.82-145.98 0-112.96-91.926-204.91-204.95-204.91-113 0-204.94 91.953-204.94 204.91 0 57.074 23.629 109.62 62.547 147.32-28.457 21.758-52.035 49.848-68.031 81.957-23.367 46.785-28.957 225.43-29.895 260.77-0.35547 15.602 11.934 28.551 27.559 28.934h0.71094c15.285 0 27.812-12.184 28.219-27.52 2.043-82.668 10.891-210.82 23.961-236.99 14.82-29.723 38.375-54.582 66.672-72.039 13.043 6.6719 26.926 12.16 41.551 15.957 2.375 0.59375 4.7461 0.91016 7.1211 0.91016 12.527 0 24-8.4414 27.309-21.152 3.918-15.086-5.168-30.5-20.23-34.43-65.355-16.957-111.02-76.062-111.02-143.71 0-81.836 66.633-148.43 148.46-148.43 81.875 0 148.47 66.594 148.47 148.43 0 58.668-34.617 111.94-88.168 135.72-14.27 6.3438-20.691 23.012-14.375 37.277 6.3438 14.215 23.039 20.676 37.266 14.336 3.8125-1.7148 7.2539-3.9297 10.906-5.8281 28.973 17.461 53.117 42.699 68.27 73.016 13.238 26.52 27.559 153.51 33.531 235.21z"/>
 <path d="m891.94 741.22c19.121 0 40.273-5.3672 61.121-20.336 12.688-9.1133 15.559-26.742 6.4766-39.414-9.1133-12.688-26.77-15.559-39.441-6.4492-28.629 20.559-54.277 2.7969-57.309 0.52734-12.266-9.4297-29.855-7.2266-39.402 4.9453-9.625 12.266-7.5312 30.012 4.7344 39.641 12.301 9.7031 35.918 21.086 63.82 21.086z"/>
 <path d="m873.82 621.44c0-17.289-14.07-31.344-31.344-31.344-17.262 0-31.32 14.059-31.32 31.344 0 17.25 14.059 31.32 31.32 31.32s31.344-14.07 31.344-31.32z"/>
 <path d="m971.05 621.44c0-17.289-14.031-31.344-31.332-31.344-17.289 0-31.359 14.059-31.359 31.344 0 17.25 14.07 31.32 31.359 31.32s31.332-14.07 31.332-31.32z"/>
 <path d="m831.62 1170.6v-209.73c0-15.613-12.645-28.234-28.273-28.234-15.574 0-28.234 12.621-28.234 28.234v209.73c0 15.602 12.66 28.234 28.234 28.234 15.629 0 28.273-12.633 28.273-28.234z"/>
 <path d="m1024.8 932.69c-15.586 0-28.234 12.621-28.234 28.234v209.73c0 15.602 12.645 28.234 28.234 28.234 15.602 0 28.219-12.633 28.219-28.234l0.003906-209.75c0-15.602-12.621-28.219-28.223-28.219z"/>
 <path d="m845.05 280.71c0-15.613-12.672-28.234-28.246-28.234h-391.12c-10.785 0-20.652 6.1445-25.398 15.852l-51.836 106.35c-6.8047 14.02-1.0039 30.949 13.016 37.754 4.0078 1.9531 8.2148 2.8633 12.371 2.8633 10.445 0 20.52-5.8398 25.426-15.852l44.082-90.5h373.48c15.559 0.011719 28.23-12.621 28.23-28.234z"/>
 <path d="m194.21 308.95h111.02c15.574 0 28.246-12.633 28.246-28.246s-12.66-28.234-28.246-28.234h-111.02c-15.574 0-28.246-12.688-28.246-28.273v-138.34c0-15.574 12.672-28.219 28.246-28.219h884.08c15.602 0 28.285 12.645 28.285 28.219v138.36c0 15.574-12.688 28.273-28.285 28.273h-135.5c-10.812 0-20.73 6.1992-25.426 15.98l-51.23 106.32c-6.7656 14.07-0.85547 30.949 13.215 37.699 3.9297 1.8984 8.0977 2.8086 12.223 2.8086 10.496 0 20.586-5.8945 25.449-15.98l43.516-90.371h117.77c46.695 0 84.766-38.004 84.766-84.738l0.003906-138.35c0-46.707-38.07-84.699-84.766-84.699h-884.1c-46.707 0-84.727 37.992-84.727 84.699v138.36c0 46.734 38.02 84.738 84.727 84.738z"/>
 <path d="m594.45 146.24c0-15.602-12.66-28.234-28.246-28.234h-286.64c-15.602 0-28.234 12.633-28.234 28.234 0 15.613 12.633 28.246 28.234 28.246h286.64c15.59 0 28.25-12.633 28.25-28.246z"/>
 <path d="m729.18 118.02c-15.574 0-28.234 12.633-28.234 28.234 0 15.613 12.66 28.246 28.234 28.246h22.59c15.613 0 28.246-12.633 28.246-28.246 0-15.602-12.633-28.234-28.246-28.234z"/>
 <path d="m920.85 146.24c0-15.602-12.621-28.234-28.246-28.234h-40.234c-15.574 0-28.234 12.633-28.234 28.234 0 15.613 12.66 28.246 28.234 28.246h40.234c15.629 0 28.246-12.633 28.246-28.246z"/>
 <path d="m1015.8 174.49c15.625 0 28.258-12.633 28.258-28.246 0-15.602-12.633-28.234-28.258-28.234h-22.574c-15.586 0-28.246 12.633-28.246 28.234 0 15.613 12.66 28.246 28.246 28.246z"/>
</svg>
