<?xml version="1.0" encoding="UTF-8"?>
<svg width="1200pt" height="1200pt" version="1.1" viewBox="102 200 995 660" xmlns="http://www.w3.org/2000/svg" fill="#d4920b">
 <path d="m358.13 452.44c0 0.046875-0.046875 0.09375-0.09375 0.1875-4.4531 24.75-2.625 48.047 5.5312 69.188 0.89062 2.25 3.0469 3.75 5.4375 3.75l547.6-0.375c0.46875 0.14062 0.98438 0.28125 1.4531 0.28125 0.32812 0 0.5625-0.23438 0.89062-0.28125l56.625-0.046875c2.7656 0 5.1562-1.9219 5.7188-4.6406 4.0312-19.219 5.1094-41.25 3.2344-67.359 0-0.32812-0.1875-0.60938-0.23438-0.89062-0.046874-0.1875 0-0.375-0.046874-0.60938l-66.844-194.34c-0.79688-2.3438-3.0469-3.9375-5.5312-3.9375h-0.046876l-500.95 2.1562c-2.6719 0-5.0156 1.8281-5.625 4.4531l-47.156 192.28v0.1875zm10.828 7.0312h29.812c-2.5781 19.172-1.2188 37.406 3.9375 54.375h-29.578c-5.7188-16.734-6.9844-35.016-4.1719-54.375zm549.14-0.046875c2.8125 19.266 1.3594 37.406-4.3125 54.094l-498.94 0.32812c-5.7188-16.734-7.1719-34.969-4.3594-54.375zm52.688 54.047-44.766 0.046875c5.1094-16.875 6.4219-35.016 3.8438-54.094h43.312c1.1719 20.531 0.42187 38.391-2.3906 54.047zm-555.28-246.28 492.24-2.1094 62.812 182.63-599.29 0.09375 44.297-180.61zm137.48 25.734c1.125 1.1719 1.6875 2.7656 1.5938 4.3594l-5.0625 87.328c-0.1875 3.0938-2.7188 5.4844-5.8125 5.4844h-1.1719c-0.70312 0.28125-1.4531 0.46875-2.25 0.42188l-73.547-0.375c-0.46875 0.046875-0.98438 0-1.5-0.09375-3.2344-0.60938-5.3438-3.7031-4.6875-6.9375l16.922-88.125c0.51562-2.7188 2.9062-4.7812 5.8125-4.7812l61.828-0.28125h0.65625c1.1719 0.046875 2.1562 0.5625 3.0469 1.1719 1.5938 0 3.0938 0.65625 4.1719 1.8281zm523.6 354.1c-0.5625 11.109-1.7344 21.141-3.375 30.328h-0.89062l-52.359 0.046876c1.6875-11.297 2.625-23.156 2.8125-35.109 0.1875-11.719-0.42188-23.438-1.8281-34.547h55.453c0.79688 14.484 0.84375 27.516 0.23438 39.281zm-201.61 198.74-729.66-146.44 149.34-172.13-17.391 70.875c-0.09375 0.28125-0.14062 0.5625-0.14062 0.89062-2.8125 15.656-3.7031 30.891-2.5781 45.703 1.125 14.906 4.3125 29.438 9.75 43.594 1.0312 3.1406 3.9844 5.3906 7.5 5.3906l700.22-0.46875-114.38 151.26c-0.9375 0.28125-1.8281 0.70313-2.625 1.3125zm-514.55-237.94c-1.4062 11.109-2.0156 22.828-1.8281 34.547 0.1875 12.047 1.1719 24.094 2.8594 35.438l-64.219 0.046875c-3.7969-11.109-6.0938-22.594-6.9844-34.406-0.89062-11.625-0.375-23.531 1.3594-35.672h68.766zm417.56 234.56c-8.1094 13.547-10.266 29.438-9.5156 44.812 0.75 15.234 4.4062 29.906 7.9219 41.203l-575.02-119.53c-3.4688-10.781-7.2188-25.219-7.9688-40.031-0.70312-14.672 1.5469-29.766 10.219-41.719zm-405.61-234.56 636.61-0.09375c1.5 11.062 2.1094 22.781 1.9688 34.406-0.1875 11.953-1.1719 23.906-3 35.25h-0.70312l-633.84 0.42188c-1.8281-11.438-2.8594-23.531-3.0469-35.578-0.1875-11.672 0.46875-23.344 1.9688-34.406zm-181.26 116.77c-8.1094 13.547-10.266 29.438-9.5156 44.766 0.65625 13.266 3.5156 26.156 6.5625 36.703l-57-11.859c-3.4688-10.688-7.3125-25.172-8.0156-40.031-0.70312-14.578 1.5938-29.531 10.406-41.203l57.562 11.578zm881.58-132.66-777.71 0.09375 22.688-92.578c0.046874-0.14062 0.09375-0.28125 0.09375-0.42188l34.547-141 20.766-0.09375-23.391 95.344c-0.046874 0.28125-0.14062 0.5625-0.14062 0.84375-2.2031 12.375-2.9062 24.422-2.0625 36.094 0.89062 11.766 3.4219 23.297 7.6875 34.547 1.0312 3.1406 3.9844 5.3906 7.5 5.3906l616.18-0.42188c3.8438 0.1875 7.3594-2.3906 8.1562-6.2812 1.9219-9.1406 3.2812-19.312 3.8906-30.797 0.60938-11.391 0.46875-24.047-0.51562-38.203-0.046875-0.70312-0.1875-1.3594-0.42188-2.0156l-33.375-97.078 34.688-0.14062 81.375 236.68zm-31.125 106.27c2.5781 1.9219 3.1406 5.5781 1.2188 8.1562l-174.98 237c-0.9375 1.2656-2.3438 1.9219-3.7969 2.1562 0.046875 0.375 0.09375 0.70312 0.14062 1.0781l-74.438-15.469c-3.7969-11.016-8.625-27.516-9.4688-44.531-0.70312-14.672 1.5469-29.766 10.219-41.719l76.734 15.422c-3.6094 10.266-5.6719 22.734-6.3281 36.047-0.5625 11.297-0.14062 23.25 1.1719 35.109l171.28-232.03c1.9219-2.5781 5.5781-3.1406 8.1562-1.2188z"/>
</svg>
